<svg role="presentation" width="15" height="15" focusable="false" class="xnav-icon xnav-icon-svg" viewBox="0 0 15 15">
    <path d="M7.5 15a7.5 7.5 0 1 0 0-15 7.5 7.5 0 0 0 0 15zm-.991-5.002V12H8.55V9.998H6.509zm-2.093-4.29h1.911c0-.234.026-.453.078-.657a1.58 1.58 0 0 1 .24-.532c.109-.152.247-.273.417-.365.169-.09.37-.136.604-.136.347 0 .617.095.813.286.195.19.292.485.292.884.009.234-.032.429-.123.585-.092.156-.21.299-.358.429-.147.13-.308.26-.481.39s-.338.284-.494.462a2.686 2.686 0 0 0-.41.643c-.117.251-.188.563-.214.936v.585h1.755v-.494c.035-.26.12-.477.254-.65.134-.173.288-.327.461-.462.173-.134.357-.268.553-.402a2.532 2.532 0 0 0 .936-1.176c.108-.27.162-.612.162-1.028a2.333 2.333 0 0 0-.702-1.625c-.251-.251-.583-.461-.994-.63-.412-.17-.926-.254-1.541-.254-.477 0-.908.08-1.293.24a2.87 2.87 0 0 0-.989.67 3.053 3.053 0 0 0-.636 1.014c-.152.39-.232.819-.241 1.287z"></path>
</svg>