<svg width="640" height="220" viewBox="0 0 640 220" fill="none" xmlns="http://www.w3.org/2000/svg">
<path d="M60 190H0V210H10V220H20V210H60V190Z" fill="#E62020"/>
<path d="M130 190H70V210H80V220H90V210H130V190Z" fill="#E62020"/>
<path d="M200 190H140V210H150V220H160V210H200V190Z" fill="#E62020"/>
<path d="M270 190H210V210H220V220H230V210H270V190Z" fill="#E62020"/>
<path d="M340 190H280V210H290V220H300V210H340V190Z" fill="#E62020"/>
<path d="M550 190H490V210H500V220H510V210H550V190Z" fill="#E62020"/>
<path d="M610 80V140H630V130H640V120H630V80H610Z" fill="#E62020"/>
<path d="M490 30H550V10H540V0H530V10H490V30Z" fill="#E62020"/>
<path d="M480 190H420V210H430V220H440V210H480V190Z" fill="#E62020"/>
<path d="M410 190H350V210H360V220H370V210H410V190Z" fill="#E62020"/>
<path d="M600 150H620V170H610V180H600V190H590V200H580V210H560V190H570V180H580V170H590V160H600V150Z" fill="#E62020"/>
<path d="M590 200V210H600V200H590Z" fill="#E62020"/>
<path d="M560 30V10H580V20H590V30H600V40H610V50H620V70H600V60H590V50H580V40H570V30H560Z" fill="#E62020"/>
<path d="M610 40H620V30H610V40Z" fill="#E62020"/>
<path fill-rule="evenodd" clip-rule="evenodd" d="M570 70H490V150H570V70ZM560 80H500V140H560V80Z" fill="#E62020"/>
<path d="M510 90H550V130H510V90Z" fill="#E62020"/>
<path d="M16.8559 79.55V93.575H36.2059V140H53.2309V93.575H72.5809V79.55H16.8559Z" fill="#FAFAFA"/>
<path d="M120.173 120.725V109.925C120.173 98.975 115.223 94.025 104.273 94.025H75.098V140H90.6981V105.65H104.573V120.725H120.173Z" fill="#FAFAFA"/>
<path d="M153.576 129.575H137.676V121.925H153.576V129.575ZM169.176 140V109.925C169.176 98.975 164.226 94.025 153.276 94.025H126.726V105.65H153.576V111.5H136.626C127.626 111.5 122.751 115.925 122.751 125.15V126.35C122.751 135.5 128.001 140 136.626 140H169.176Z" fill="#FAFAFA"/>
<path d="M215.599 94.025H196.849C181.999 94.025 176.299 98.225 176.299 112.85V120.8C176.299 135.425 181.999 140 196.849 140H215.599V128.45H191.899V105.65H215.599V94.025Z" fill="#FAFAFA"/>
<path d="M273.069 140L253.194 115.925L271.794 94.025H253.794L238.794 112.4V79.55H223.194V140H238.794V121.1L254.994 140H273.069Z" fill="#FAFAFA"/>
<path d="M307.175 79.55H293.375C284.75 79.55 280.025 83.975 280.025 93.8C280.025 93.8 280.025 98.525 280.025 98.6H272.825V110.15H280.025V140H295.625V110.15H307.175V98.525H295.625V91.175H307.175V79.55Z" fill="#FAFAFA"/>
<path d="M326.465 140V79.55H310.865V140H326.465Z" fill="#FAFAFA"/>
<path d="M364.824 104.9V112.175H348.399V104.9H364.824ZM379.599 122.3V112.85C379.599 98.225 373.899 93.65 359.049 93.65H354.174C339.324 93.65 333.624 97.775 333.624 112.475V120.8C333.624 135.425 339.324 140 354.174 140H378.924V128.45H348.399V122.3H379.599Z" fill="#FAFAFA"/>
<path d="M417.119 104.9V112.175H400.694V104.9H417.119ZM431.894 122.3V112.85C431.894 98.225 426.194 93.65 411.344 93.65H406.469C391.619 93.65 385.919 97.775 385.919 112.475V120.8C385.919 135.425 391.619 140 406.469 140H431.219V128.45H400.694V122.3H431.894Z" fill="#FAFAFA"/>
<path d="M461.688 140H470.613V128.45H457.563V105.65H470.613V94.025H457.563V81.125H441.963V94.025H434.988V105.65H441.963V122C441.963 135.95 446.688 140 461.688 140Z" fill="#FAFAFA"/>
</svg>
